<?xml version="1.0" encoding="UTF-8"?>
<svg id="Ebene_1" data-name="Ebene 1" xmlns="http://www.w3.org/2000/svg" viewBox="0 0 300 130">
  <defs>
    <style>
      :root{
        --color-knowwe-primary: #1a3766
      }
      .cls-1 {
        fill: rgba(0, 0, 0, 0);
      }

      .cls-1, .cls-2 {
        stroke-width: 0px;
      }

    </style>
  </defs>
  <rect class="cls-1" width="300" height="130"/>
  <path fill="var(--color-knowwe-primary)" stroke="var(--color-knowwe-primary)"  d="M78.06,79.41c1.5-1.5,65.06,33.57,121.39,30.68s74.61-26.18,76.11-25.18-30.92,43.57-77.66,43.57-121.34-47.57-119.84-49.07Z"/>
  <path fill="var(--color-knowwe-primary)" class="cls-2" d="M276.3,67.24c7.89-2,16.28-2.86,17.26-1.34,1.83,2.86-1.84,17.18-4.36,23.66s-9.63,20.34-11.63,19.28c-2-1.05-.03-7.74.99-14.95.96-6.79,2.48-14.01,2-14.5-.5-.5-5.57.38-11.28.38-5.79,0-10.21-.38-10.71-1.88s9.84-8.66,17.74-10.66Z"/>
  <path fill="var(--color-knowwe-primary)" class="cls-2" d="M51.97,14.41l-7.53,22.84,8.25,27.75h-13.59l-5.31-21.69v21.69h-13.16V14.41h13.16v19.66l5.84-19.66h12.34ZM71.31,23.53l-.22,3.81c1.81-3.02,4.46-4.54,7.94-4.56,1.92-.02,3.58.42,5,1.31,1.54.96,2.53,2.32,2.97,4.09.4,1.58.59,4.17.59,7.75v29.06h-12.62v-28.72c0-2.73.01-3.96.03-3.69-.17-1.65-.79-2.47-1.88-2.47-1.17,0-1.84.93-2.03,2.78,0-.08,0,1.27,0,4.06v28.03h-12.62V23.53h12.84ZM124.37,38.09v10.16c0,3.25-.1,5.54-.31,6.88-.4,2.46-1.28,4.53-2.66,6.22-2.38,2.92-6.17,4.39-11.38,4.41-5.6.04-9.48-1.19-11.63-3.69-1.98-2.29-2.97-6.44-2.97-12.44v-10.62c0-3.46.3-6.14.91-8.03.85-2.69,2.47-4.76,4.84-6.22,2.15-1.31,4.92-1.97,8.31-1.97,5.52,0,9.52,1.52,12,4.56,1.23,1.5,2.05,3.19,2.47,5.06.27,1.29.41,3.19.41,5.69ZM111.74,34.97c0-1.75-.02-2.74-.06-2.97-.21-1.25-.79-1.88-1.75-1.88-.75,0-1.25.28-1.5.84-.25.54-.38,1.88-.38,4v18.72c0,1.6.03,2.57.09,2.91.23,1.19.81,1.79,1.75,1.81.92.02,1.49-.51,1.72-1.59.08-.38.12-1.28.12-2.72v-19.12ZM173.18,23.53l-5.03,41.47h-13.72c-.65-4.35-1.51-11.02-2.59-20-.25,2.98-.72,6.65-1.41,11l-1.41,9h-13.72l-5.34-41.47h10.88c.06,1.23.98,9.14,2.75,23.72.12-1.5,1.06-9.41,2.81-23.72h10.47l2.56,23.72c.38-7.08,1.33-14.99,2.88-23.72h10.88ZM228.99,14.41l-5.84,50.59h-16.44c-1.48-7.65-2.8-16.48-3.97-26.5-.48,4.1-1.7,12.94-3.66,26.5h-16.34l-5.88-50.59h12.78l2.72,34.69c.48-9.06,1.69-20.62,3.62-34.69h13.69c.31,2.4.79,7.96,1.44,16.69l1.44,19.22c.73-12.23,1.95-24.2,3.66-35.91h12.78ZM235.45,14.41h21.94v10.12h-8.78v9.59h8.22v9.62h-8.22v11.12h9.66v10.12h-22.81V14.41Z"/>
</svg>